<mxfile host="app.diagrams.net" agent="Mozilla/5.0 (Windows NT 10.0; Win64; x64; rv:135.0) Gecko/20100101 Firefox/135.0" version="26.0.11">
  <diagram id="C5RBs43oDa-KdzZeNtuy" name="Page-1">
    <mxGraphModel dx="1912" dy="1043" grid="1" gridSize="10" guides="1" tooltips="1" connect="1" arrows="1" fold="1" page="1" pageScale="1" pageWidth="827" pageHeight="1169" math="0" shadow="0">
      <root>
        <mxCell id="WIyWlLk6GJQsqaUBKTNV-0" />
        <mxCell id="WIyWlLk6GJQsqaUBKTNV-1" parent="WIyWlLk6GJQsqaUBKTNV-0" />
        <mxCell id="WIyWlLk6GJQsqaUBKTNV-2" value="" style="rounded=0;html=1;jettySize=auto;orthogonalLoop=1;fontSize=11;endArrow=block;endFill=0;endSize=8;strokeWidth=1;shadow=0;labelBackgroundColor=none;edgeStyle=orthogonalEdgeStyle;" parent="WIyWlLk6GJQsqaUBKTNV-1" source="WIyWlLk6GJQsqaUBKTNV-3" edge="1">
          <mxGeometry relative="1" as="geometry">
            <mxPoint x="70" y="100" as="targetPoint" />
          </mxGeometry>
        </mxCell>
        <mxCell id="WIyWlLk6GJQsqaUBKTNV-3" value="Setup" style="rounded=1;whiteSpace=wrap;html=1;fontSize=12;glass=0;strokeWidth=1;shadow=0;" parent="WIyWlLk6GJQsqaUBKTNV-1" vertex="1">
          <mxGeometry x="10" y="10" width="120" height="40" as="geometry" />
        </mxCell>
        <mxCell id="C9dIcQzHgNtX-Cr2ID7v-1" value="Serial Successful" style="rhombus;whiteSpace=wrap;html=1;" parent="WIyWlLk6GJQsqaUBKTNV-1" vertex="1">
          <mxGeometry x="10" y="210" width="120" height="80" as="geometry" />
        </mxCell>
        <mxCell id="C9dIcQzHgNtX-Cr2ID7v-4" value="" style="rounded=0;html=1;jettySize=auto;orthogonalLoop=1;fontSize=11;endArrow=block;endFill=0;endSize=8;strokeWidth=1;shadow=0;labelBackgroundColor=none;edgeStyle=orthogonalEdgeStyle;entryX=0;entryY=0.5;entryDx=0;entryDy=0;exitX=1;exitY=0.5;exitDx=0;exitDy=0;" parent="WIyWlLk6GJQsqaUBKTNV-1" source="C9dIcQzHgNtX-Cr2ID7v-1" edge="1">
          <mxGeometry relative="1" as="geometry">
            <mxPoint x="131" y="240" as="sourcePoint" />
            <mxPoint x="204" y="250" as="targetPoint" />
          </mxGeometry>
        </mxCell>
        <mxCell id="C9dIcQzHgNtX-Cr2ID7v-7" value="No" style="edgeLabel;html=1;align=center;verticalAlign=middle;resizable=0;points=[];" parent="C9dIcQzHgNtX-Cr2ID7v-4" vertex="1" connectable="0">
          <mxGeometry x="0.4595" relative="1" as="geometry">
            <mxPoint x="-34" y="-10" as="offset" />
          </mxGeometry>
        </mxCell>
        <mxCell id="C9dIcQzHgNtX-Cr2ID7v-9" value="Modbus Setup Successful?" style="rhombus;whiteSpace=wrap;html=1;" parent="WIyWlLk6GJQsqaUBKTNV-1" vertex="1">
          <mxGeometry x="10" y="360" width="120" height="80" as="geometry" />
        </mxCell>
        <mxCell id="C9dIcQzHgNtX-Cr2ID7v-10" value="Print Debug and inf loop" style="rounded=0;whiteSpace=wrap;html=1;" parent="WIyWlLk6GJQsqaUBKTNV-1" vertex="1">
          <mxGeometry x="204" y="370" width="120" height="60" as="geometry" />
        </mxCell>
        <mxCell id="C9dIcQzHgNtX-Cr2ID7v-12" value="" style="rounded=0;html=1;jettySize=auto;orthogonalLoop=1;fontSize=11;endArrow=block;endFill=0;endSize=8;strokeWidth=1;shadow=0;labelBackgroundColor=none;edgeStyle=orthogonalEdgeStyle;entryX=0;entryY=0.5;entryDx=0;entryDy=0;exitX=1;exitY=0.5;exitDx=0;exitDy=0;" parent="WIyWlLk6GJQsqaUBKTNV-1" source="C9dIcQzHgNtX-Cr2ID7v-9" target="C9dIcQzHgNtX-Cr2ID7v-10" edge="1">
          <mxGeometry relative="1" as="geometry">
            <mxPoint x="131" y="390" as="sourcePoint" />
            <mxPoint x="80" y="370" as="targetPoint" />
          </mxGeometry>
        </mxCell>
        <mxCell id="C9dIcQzHgNtX-Cr2ID7v-13" value="No" style="edgeLabel;html=1;align=center;verticalAlign=middle;resizable=0;points=[];" parent="C9dIcQzHgNtX-Cr2ID7v-12" vertex="1" connectable="0">
          <mxGeometry x="0.4595" relative="1" as="geometry">
            <mxPoint x="-34" y="-10" as="offset" />
          </mxGeometry>
        </mxCell>
        <mxCell id="C9dIcQzHgNtX-Cr2ID7v-15" value="" style="rounded=0;html=1;jettySize=auto;orthogonalLoop=1;fontSize=11;endArrow=block;endFill=0;endSize=8;strokeWidth=1;shadow=0;labelBackgroundColor=none;edgeStyle=orthogonalEdgeStyle;exitX=0.5;exitY=1;exitDx=0;exitDy=0;entryX=0.5;entryY=0;entryDx=0;entryDy=0;" parent="WIyWlLk6GJQsqaUBKTNV-1" source="C9dIcQzHgNtX-Cr2ID7v-1" edge="1">
          <mxGeometry relative="1" as="geometry">
            <mxPoint x="80" y="430" as="sourcePoint" />
            <mxPoint x="70" y="360" as="targetPoint" />
          </mxGeometry>
        </mxCell>
        <mxCell id="C9dIcQzHgNtX-Cr2ID7v-16" value="Yes" style="edgeLabel;html=1;align=center;verticalAlign=middle;resizable=0;points=[];" parent="C9dIcQzHgNtX-Cr2ID7v-15" vertex="1" connectable="0">
          <mxGeometry x="0.3714" y="7" relative="1" as="geometry">
            <mxPoint y="-28" as="offset" />
          </mxGeometry>
        </mxCell>
        <mxCell id="C9dIcQzHgNtX-Cr2ID7v-18" value="" style="rounded=0;html=1;jettySize=auto;orthogonalLoop=1;fontSize=11;endArrow=block;endFill=0;endSize=8;strokeWidth=1;shadow=0;labelBackgroundColor=none;edgeStyle=orthogonalEdgeStyle;exitX=0.5;exitY=1;exitDx=0;exitDy=0;" parent="WIyWlLk6GJQsqaUBKTNV-1" source="C9dIcQzHgNtX-Cr2ID7v-9" edge="1">
          <mxGeometry relative="1" as="geometry">
            <mxPoint x="80" y="190" as="sourcePoint" />
            <mxPoint x="70" y="500" as="targetPoint" />
          </mxGeometry>
        </mxCell>
        <mxCell id="C9dIcQzHgNtX-Cr2ID7v-19" value="Yes" style="edgeLabel;html=1;align=center;verticalAlign=middle;resizable=0;points=[];" parent="C9dIcQzHgNtX-Cr2ID7v-18" vertex="1" connectable="0">
          <mxGeometry x="0.3714" y="7" relative="1" as="geometry">
            <mxPoint y="-28" as="offset" />
          </mxGeometry>
        </mxCell>
        <mxCell id="C9dIcQzHgNtX-Cr2ID7v-21" value="&lt;div&gt;Enet&lt;/div&gt;&lt;div&gt;Setup Successful?&lt;/div&gt;" style="rhombus;whiteSpace=wrap;html=1;" parent="WIyWlLk6GJQsqaUBKTNV-1" vertex="1">
          <mxGeometry x="10" y="500" width="120" height="80" as="geometry" />
        </mxCell>
        <mxCell id="C9dIcQzHgNtX-Cr2ID7v-22" value="Print Debug and inf loop" style="rounded=0;whiteSpace=wrap;html=1;" parent="WIyWlLk6GJQsqaUBKTNV-1" vertex="1">
          <mxGeometry x="204" y="510" width="120" height="60" as="geometry" />
        </mxCell>
        <mxCell id="C9dIcQzHgNtX-Cr2ID7v-24" value="" style="rounded=0;html=1;jettySize=auto;orthogonalLoop=1;fontSize=11;endArrow=block;endFill=0;endSize=8;strokeWidth=1;shadow=0;labelBackgroundColor=none;edgeStyle=orthogonalEdgeStyle;entryX=0;entryY=0.5;entryDx=0;entryDy=0;exitX=1;exitY=0.5;exitDx=0;exitDy=0;" parent="WIyWlLk6GJQsqaUBKTNV-1" source="C9dIcQzHgNtX-Cr2ID7v-21" target="C9dIcQzHgNtX-Cr2ID7v-22" edge="1">
          <mxGeometry relative="1" as="geometry">
            <mxPoint x="131" y="530" as="sourcePoint" />
            <mxPoint x="80" y="510" as="targetPoint" />
          </mxGeometry>
        </mxCell>
        <mxCell id="C9dIcQzHgNtX-Cr2ID7v-25" value="No" style="edgeLabel;html=1;align=center;verticalAlign=middle;resizable=0;points=[];" parent="C9dIcQzHgNtX-Cr2ID7v-24" vertex="1" connectable="0">
          <mxGeometry x="0.4595" relative="1" as="geometry">
            <mxPoint x="-34" y="-10" as="offset" />
          </mxGeometry>
        </mxCell>
        <mxCell id="C9dIcQzHgNtX-Cr2ID7v-26" value="" style="rounded=0;html=1;jettySize=auto;orthogonalLoop=1;fontSize=11;endArrow=block;endFill=0;endSize=8;strokeWidth=1;shadow=0;labelBackgroundColor=none;edgeStyle=orthogonalEdgeStyle;exitX=0.5;exitY=1;exitDx=0;exitDy=0;entryX=0.5;entryY=0;entryDx=0;entryDy=0;" parent="WIyWlLk6GJQsqaUBKTNV-1" source="C9dIcQzHgNtX-Cr2ID7v-21" edge="1">
          <mxGeometry relative="1" as="geometry">
            <mxPoint x="80" y="340" as="sourcePoint" />
            <mxPoint x="70" y="640" as="targetPoint" />
          </mxGeometry>
        </mxCell>
        <mxCell id="C9dIcQzHgNtX-Cr2ID7v-27" value="Yes" style="edgeLabel;html=1;align=center;verticalAlign=middle;resizable=0;points=[];" parent="C9dIcQzHgNtX-Cr2ID7v-26" vertex="1" connectable="0">
          <mxGeometry x="0.3714" y="7" relative="1" as="geometry">
            <mxPoint y="-28" as="offset" />
          </mxGeometry>
        </mxCell>
        <mxCell id="C9dIcQzHgNtX-Cr2ID7v-37" value="Finish Setup" style="rounded=1;whiteSpace=wrap;html=1;fontSize=12;glass=0;strokeWidth=1;shadow=0;" parent="WIyWlLk6GJQsqaUBKTNV-1" vertex="1">
          <mxGeometry x="10" y="1239" width="120" height="40" as="geometry" />
        </mxCell>
        <mxCell id="dXqyjR7Wo8ypCJz_KW_R-1" value="Print Debug and Return" style="rounded=0;whiteSpace=wrap;html=1;" vertex="1" parent="WIyWlLk6GJQsqaUBKTNV-1">
          <mxGeometry x="204" y="220" width="120" height="60" as="geometry" />
        </mxCell>
        <mxCell id="dXqyjR7Wo8ypCJz_KW_R-2" value="Init NeoPixel" style="rounded=0;whiteSpace=wrap;html=1;" vertex="1" parent="WIyWlLk6GJQsqaUBKTNV-1">
          <mxGeometry x="10" y="100" width="120" height="60" as="geometry" />
        </mxCell>
        <mxCell id="dXqyjR7Wo8ypCJz_KW_R-4" value="" style="rounded=0;html=1;jettySize=auto;orthogonalLoop=1;fontSize=11;endArrow=block;endFill=0;endSize=8;strokeWidth=1;shadow=0;labelBackgroundColor=none;edgeStyle=orthogonalEdgeStyle;exitX=0.5;exitY=1;exitDx=0;exitDy=0;" edge="1" parent="WIyWlLk6GJQsqaUBKTNV-1" source="dXqyjR7Wo8ypCJz_KW_R-2">
          <mxGeometry relative="1" as="geometry">
            <mxPoint x="80" y="300" as="sourcePoint" />
            <mxPoint x="70" y="210" as="targetPoint" />
          </mxGeometry>
        </mxCell>
        <mxCell id="dXqyjR7Wo8ypCJz_KW_R-6" value="Finish Loop" style="rounded=1;whiteSpace=wrap;html=1;fontSize=12;glass=0;strokeWidth=1;shadow=0;" vertex="1" parent="WIyWlLk6GJQsqaUBKTNV-1">
          <mxGeometry x="10" y="640" width="120" height="40" as="geometry" />
        </mxCell>
        <mxCell id="dXqyjR7Wo8ypCJz_KW_R-7" value="Loop" style="rounded=1;whiteSpace=wrap;html=1;fontSize=12;glass=0;strokeWidth=1;shadow=0;" vertex="1" parent="WIyWlLk6GJQsqaUBKTNV-1">
          <mxGeometry x="480" y="10" width="120" height="40" as="geometry" />
        </mxCell>
        <mxCell id="dXqyjR7Wo8ypCJz_KW_R-8" value="Get available ethernet client" style="rounded=0;whiteSpace=wrap;html=1;" vertex="1" parent="WIyWlLk6GJQsqaUBKTNV-1">
          <mxGeometry x="480" y="100" width="120" height="60" as="geometry" />
        </mxCell>
        <mxCell id="dXqyjR7Wo8ypCJz_KW_R-9" value="ethernet client exists?" style="rhombus;whiteSpace=wrap;html=1;" vertex="1" parent="WIyWlLk6GJQsqaUBKTNV-1">
          <mxGeometry x="480" y="210" width="120" height="80" as="geometry" />
        </mxCell>
        <mxCell id="dXqyjR7Wo8ypCJz_KW_R-10" value="" style="rounded=0;html=1;jettySize=auto;orthogonalLoop=1;fontSize=11;endArrow=block;endFill=0;endSize=8;strokeWidth=1;shadow=0;labelBackgroundColor=none;edgeStyle=orthogonalEdgeStyle;entryX=0;entryY=0.5;entryDx=0;entryDy=0;exitX=1;exitY=0.5;exitDx=0;exitDy=0;" edge="1" parent="WIyWlLk6GJQsqaUBKTNV-1" source="dXqyjR7Wo8ypCJz_KW_R-9">
          <mxGeometry relative="1" as="geometry">
            <mxPoint x="601" y="240" as="sourcePoint" />
            <mxPoint x="674" y="250" as="targetPoint" />
          </mxGeometry>
        </mxCell>
        <mxCell id="dXqyjR7Wo8ypCJz_KW_R-11" value="No" style="edgeLabel;html=1;align=center;verticalAlign=middle;resizable=0;points=[];" vertex="1" connectable="0" parent="dXqyjR7Wo8ypCJz_KW_R-10">
          <mxGeometry x="0.4595" relative="1" as="geometry">
            <mxPoint x="-34" y="-10" as="offset" />
          </mxGeometry>
        </mxCell>
        <mxCell id="dXqyjR7Wo8ypCJz_KW_R-12" value="" style="rounded=0;html=1;jettySize=auto;orthogonalLoop=1;fontSize=11;endArrow=block;endFill=0;endSize=8;strokeWidth=1;shadow=0;labelBackgroundColor=none;edgeStyle=orthogonalEdgeStyle;exitX=0.5;exitY=1;exitDx=0;exitDy=0;entryX=0.5;entryY=0;entryDx=0;entryDy=0;" edge="1" parent="WIyWlLk6GJQsqaUBKTNV-1" source="dXqyjR7Wo8ypCJz_KW_R-9">
          <mxGeometry relative="1" as="geometry">
            <mxPoint x="550" y="430" as="sourcePoint" />
            <mxPoint x="540" y="360" as="targetPoint" />
          </mxGeometry>
        </mxCell>
        <mxCell id="dXqyjR7Wo8ypCJz_KW_R-13" value="Yes" style="edgeLabel;html=1;align=center;verticalAlign=middle;resizable=0;points=[];" vertex="1" connectable="0" parent="dXqyjR7Wo8ypCJz_KW_R-12">
          <mxGeometry x="0.3714" y="7" relative="1" as="geometry">
            <mxPoint y="-28" as="offset" />
          </mxGeometry>
        </mxCell>
        <mxCell id="dXqyjR7Wo8ypCJz_KW_R-14" value="Close client, print debug and loop" style="rounded=0;whiteSpace=wrap;html=1;" vertex="1" parent="WIyWlLk6GJQsqaUBKTNV-1">
          <mxGeometry x="674" y="220" width="120" height="60" as="geometry" />
        </mxCell>
        <mxCell id="dXqyjR7Wo8ypCJz_KW_R-15" value="" style="rounded=0;html=1;jettySize=auto;orthogonalLoop=1;fontSize=11;endArrow=block;endFill=0;endSize=8;strokeWidth=1;shadow=0;labelBackgroundColor=none;edgeStyle=orthogonalEdgeStyle;exitX=0.5;exitY=1;exitDx=0;exitDy=0;" edge="1" parent="WIyWlLk6GJQsqaUBKTNV-1" source="dXqyjR7Wo8ypCJz_KW_R-8">
          <mxGeometry relative="1" as="geometry">
            <mxPoint x="550" y="300" as="sourcePoint" />
            <mxPoint x="540" y="210" as="targetPoint" />
          </mxGeometry>
        </mxCell>
        <mxCell id="dXqyjR7Wo8ypCJz_KW_R-17" value="accept client to Modbus Server" style="rounded=0;whiteSpace=wrap;html=1;" vertex="1" parent="WIyWlLk6GJQsqaUBKTNV-1">
          <mxGeometry x="480" y="360" width="120" height="60" as="geometry" />
        </mxCell>
        <mxCell id="dXqyjR7Wo8ypCJz_KW_R-25" value="" style="rounded=0;html=1;jettySize=auto;orthogonalLoop=1;fontSize=11;endArrow=block;endFill=0;endSize=8;strokeWidth=1;shadow=0;labelBackgroundColor=none;edgeStyle=orthogonalEdgeStyle;exitX=0.5;exitY=1;exitDx=0;exitDy=0;" edge="1" parent="WIyWlLk6GJQsqaUBKTNV-1">
          <mxGeometry relative="1" as="geometry">
            <mxPoint x="540" y="420" as="sourcePoint" />
            <mxPoint x="540" y="470" as="targetPoint" />
          </mxGeometry>
        </mxCell>
        <mxCell id="dXqyjR7Wo8ypCJz_KW_R-27" value="Ethernet Client Still connected?" style="rhombus;whiteSpace=wrap;html=1;" vertex="1" parent="WIyWlLk6GJQsqaUBKTNV-1">
          <mxGeometry x="480" y="470" width="120" height="80" as="geometry" />
        </mxCell>
        <mxCell id="dXqyjR7Wo8ypCJz_KW_R-28" value="" style="rounded=0;html=1;jettySize=auto;orthogonalLoop=1;fontSize=11;endArrow=block;endFill=0;endSize=8;strokeWidth=1;shadow=0;labelBackgroundColor=none;edgeStyle=orthogonalEdgeStyle;entryX=0.5;entryY=1;entryDx=0;entryDy=0;exitX=1;exitY=0.5;exitDx=0;exitDy=0;" edge="1" parent="WIyWlLk6GJQsqaUBKTNV-1" source="dXqyjR7Wo8ypCJz_KW_R-27" target="dXqyjR7Wo8ypCJz_KW_R-14">
          <mxGeometry relative="1" as="geometry">
            <mxPoint x="601" y="500" as="sourcePoint" />
            <mxPoint x="674" y="510" as="targetPoint" />
          </mxGeometry>
        </mxCell>
        <mxCell id="dXqyjR7Wo8ypCJz_KW_R-29" value="No" style="edgeLabel;html=1;align=center;verticalAlign=middle;resizable=0;points=[];" vertex="1" connectable="0" parent="dXqyjR7Wo8ypCJz_KW_R-28">
          <mxGeometry x="0.4595" relative="1" as="geometry">
            <mxPoint x="-14" y="12" as="offset" />
          </mxGeometry>
        </mxCell>
        <mxCell id="dXqyjR7Wo8ypCJz_KW_R-30" value="" style="rounded=0;html=1;jettySize=auto;orthogonalLoop=1;fontSize=11;endArrow=block;endFill=0;endSize=8;strokeWidth=1;shadow=0;labelBackgroundColor=none;edgeStyle=orthogonalEdgeStyle;exitX=0.5;exitY=1;exitDx=0;exitDy=0;entryX=0.5;entryY=0;entryDx=0;entryDy=0;" edge="1" parent="WIyWlLk6GJQsqaUBKTNV-1" source="dXqyjR7Wo8ypCJz_KW_R-27">
          <mxGeometry relative="1" as="geometry">
            <mxPoint x="550" y="690" as="sourcePoint" />
            <mxPoint x="540" y="620" as="targetPoint" />
          </mxGeometry>
        </mxCell>
        <mxCell id="dXqyjR7Wo8ypCJz_KW_R-31" value="Yes" style="edgeLabel;html=1;align=center;verticalAlign=middle;resizable=0;points=[];" vertex="1" connectable="0" parent="dXqyjR7Wo8ypCJz_KW_R-30">
          <mxGeometry x="0.3714" y="7" relative="1" as="geometry">
            <mxPoint y="-28" as="offset" />
          </mxGeometry>
        </mxCell>
        <mxCell id="dXqyjR7Wo8ypCJz_KW_R-35" value="" style="rounded=0;html=1;jettySize=auto;orthogonalLoop=1;fontSize=11;endArrow=block;endFill=0;endSize=8;strokeWidth=1;shadow=0;labelBackgroundColor=none;edgeStyle=orthogonalEdgeStyle;exitX=0.5;exitY=1;exitDx=0;exitDy=0;entryX=0.5;entryY=0;entryDx=0;entryDy=0;" edge="1" parent="WIyWlLk6GJQsqaUBKTNV-1" source="dXqyjR7Wo8ypCJz_KW_R-7" target="dXqyjR7Wo8ypCJz_KW_R-8">
          <mxGeometry relative="1" as="geometry">
            <mxPoint x="550" y="170" as="sourcePoint" />
            <mxPoint x="550" y="220" as="targetPoint" />
          </mxGeometry>
        </mxCell>
        <mxCell id="dXqyjR7Wo8ypCJz_KW_R-36" value="Poll for changes?" style="rhombus;whiteSpace=wrap;html=1;" vertex="1" parent="WIyWlLk6GJQsqaUBKTNV-1">
          <mxGeometry x="480" y="620" width="120" height="80" as="geometry" />
        </mxCell>
        <mxCell id="dXqyjR7Wo8ypCJz_KW_R-40" value="" style="rounded=0;html=1;jettySize=auto;orthogonalLoop=1;fontSize=11;endArrow=block;endFill=0;endSize=8;strokeWidth=1;shadow=0;labelBackgroundColor=none;edgeStyle=orthogonalEdgeStyle;exitX=0.5;exitY=1;exitDx=0;exitDy=0;entryX=0.5;entryY=0;entryDx=0;entryDy=0;" edge="1" parent="WIyWlLk6GJQsqaUBKTNV-1">
          <mxGeometry relative="1" as="geometry">
            <mxPoint x="540" y="700" as="sourcePoint" />
            <mxPoint x="540" y="770" as="targetPoint" />
          </mxGeometry>
        </mxCell>
        <mxCell id="dXqyjR7Wo8ypCJz_KW_R-41" value="Yes" style="edgeLabel;html=1;align=center;verticalAlign=middle;resizable=0;points=[];" vertex="1" connectable="0" parent="dXqyjR7Wo8ypCJz_KW_R-40">
          <mxGeometry x="0.3714" y="7" relative="1" as="geometry">
            <mxPoint y="-28" as="offset" />
          </mxGeometry>
        </mxCell>
        <mxCell id="dXqyjR7Wo8ypCJz_KW_R-42" value="Service changes" style="rounded=0;whiteSpace=wrap;html=1;" vertex="1" parent="WIyWlLk6GJQsqaUBKTNV-1">
          <mxGeometry x="480" y="770" width="120" height="60" as="geometry" />
        </mxCell>
        <mxCell id="dXqyjR7Wo8ypCJz_KW_R-43" value="" style="rounded=0;html=1;jettySize=auto;orthogonalLoop=1;fontSize=11;endArrow=block;endFill=0;endSize=8;strokeWidth=1;shadow=0;labelBackgroundColor=none;edgeStyle=orthogonalEdgeStyle;exitX=0.5;exitY=1;exitDx=0;exitDy=0;entryX=0.5;entryY=0;entryDx=0;entryDy=0;" edge="1" parent="WIyWlLk6GJQsqaUBKTNV-1" source="dXqyjR7Wo8ypCJz_KW_R-42" target="dXqyjR7Wo8ypCJz_KW_R-27">
          <mxGeometry relative="1" as="geometry">
            <mxPoint x="550" y="710" as="sourcePoint" />
            <mxPoint x="550" y="780" as="targetPoint" />
            <Array as="points">
              <mxPoint x="540" y="850" />
              <mxPoint x="430" y="850" />
              <mxPoint x="430" y="450" />
              <mxPoint x="540" y="450" />
            </Array>
          </mxGeometry>
        </mxCell>
        <mxCell id="dXqyjR7Wo8ypCJz_KW_R-45" value="" style="rounded=0;html=1;jettySize=auto;orthogonalLoop=1;fontSize=11;endArrow=block;endFill=0;endSize=8;strokeWidth=1;shadow=0;labelBackgroundColor=none;edgeStyle=orthogonalEdgeStyle;exitX=0;exitY=0.5;exitDx=0;exitDy=0;entryX=0.5;entryY=0;entryDx=0;entryDy=0;" edge="1" parent="WIyWlLk6GJQsqaUBKTNV-1" source="dXqyjR7Wo8ypCJz_KW_R-36" target="dXqyjR7Wo8ypCJz_KW_R-27">
          <mxGeometry relative="1" as="geometry">
            <mxPoint x="550" y="840" as="sourcePoint" />
            <mxPoint x="550" y="480" as="targetPoint" />
            <Array as="points">
              <mxPoint x="430" y="660" />
              <mxPoint x="430" y="450" />
              <mxPoint x="540" y="450" />
            </Array>
          </mxGeometry>
        </mxCell>
        <mxCell id="dXqyjR7Wo8ypCJz_KW_R-46" value="" style="rounded=0;html=1;jettySize=auto;orthogonalLoop=1;fontSize=11;endArrow=block;endFill=0;endSize=8;strokeWidth=1;shadow=0;labelBackgroundColor=none;edgeStyle=orthogonalEdgeStyle;entryX=1;entryY=0.5;entryDx=0;entryDy=0;exitX=0.5;exitY=0;exitDx=0;exitDy=0;" edge="1" parent="WIyWlLk6GJQsqaUBKTNV-1" source="dXqyjR7Wo8ypCJz_KW_R-14" target="dXqyjR7Wo8ypCJz_KW_R-7">
          <mxGeometry relative="1" as="geometry">
            <mxPoint x="610" y="520" as="sourcePoint" />
            <mxPoint x="744" y="290" as="targetPoint" />
          </mxGeometry>
        </mxCell>
      </root>
    </mxGraphModel>
  </diagram>
</mxfile>
